<svg xmlns="http://www.w3.org/2000/svg" viewBox="0 0 512 512" role="img" aria-label="langShot">
  <defs>
    <linearGradient id="bg" x1="72" y1="56" x2="440" y2="464" gradientUnits="userSpaceOnUse">
      <stop stop-color="#1578F2"/>
      <stop offset="0.56" stop-color="#269CF8"/>
      <stop offset="1" stop-color="#55C9FF"/>
    </linearGradient>
    <linearGradient id="ink" x1="196" y1="158" x2="318" y2="364" gradientUnits="userSpaceOnUse">
      <stop stop-color="#1679F2"/>
      <stop offset="1" stop-color="#28B8FA"/>
    </linearGradient>
    <filter id="shadow" x="80" y="44" width="352" height="424" filterUnits="userSpaceOnUse">
      <feDropShadow dx="0" dy="18" stdDeviation="18" flood-color="#0755B8" flood-opacity="0.30"/>
    </filter>
  </defs>
  <rect width="512" height="512" rx="116" fill="url(#bg)"/>
  <circle cx="116" cy="86" r="148" fill="#FFFFFF" opacity="0.10"/>
  <path d="M92 168V116c0-13 11-24 24-24h52M344 92h52c13 0 24 11 24 24v52M420 344v52c0 13-11 24-24 24h-52M168 420h-52c-13 0-24-11-24-24v-52" fill="none" stroke="#FFFFFF" stroke-width="18" stroke-linecap="round" opacity="0.92"/>
  <g filter="url(#shadow)">
    <rect x="142" y="76" width="228" height="360" rx="42" fill="#FFFFFF"/>
  </g>
  <rect x="184" y="142" width="144" height="18" rx="9" fill="url(#ink)"/>
  <rect x="184" y="190" width="112" height="16" rx="8" fill="#75BDFB"/>
  <rect x="184" y="234" width="144" height="16" rx="8" fill="#B0D9FC"/>
  <path d="M256 268v78m0 0-34-34m34 34 34-34" fill="none" stroke="url(#ink)" stroke-width="22" stroke-linecap="round" stroke-linejoin="round"/>
  <rect x="210" y="388" width="92" height="12" rx="6" fill="#D3EAFF"/>
</svg>
